<svg width="26" height="18" viewBox="0 0 26 18" fill="none" xmlns="http://www.w3.org/2000/svg">
<g clip-path="url(#clip0_406_4319)">
<g clip-path="url(#clip1_406_4319)">
<path d="M25.3636 15.3409C25.3636 16.0883 25.0667 16.8052 24.5382 17.3337C24.0097 17.8622 23.2929 18.1591 22.5455 18.1591H2.81818C2.07075 18.1591 1.35394 17.8622 0.825426 17.3337C0.296915 16.8052 0 16.0883 0 15.3409V2.65909C0 1.91167 0.296915 1.19485 0.825426 0.666338C1.35394 0.137826 2.07075 -0.159088 2.81818 -0.159088H22.5455C23.2929 -0.159088 24.0097 0.137826 24.5382 0.666338C25.0667 1.19485 25.3636 1.91167 25.3636 2.65909V15.3409Z" fill="#CE1126"/>
<path d="M22.5455 -0.159088H2.81818C2.07075 -0.159088 1.35394 0.137826 0.825426 0.666338C0.296915 1.19485 0 1.91167 0 2.65909L0 9H25.3636V2.65909C25.3636 1.91167 25.0667 1.19485 24.5382 0.666338C24.0097 0.137826 23.2929 -0.159088 22.5455 -0.159088Z" fill="#0038A8"/>
<path d="M0.925068 17.4158L13.4082 9.04509L0.937046 0.574341C0.643219 0.836551 0.407919 1.15771 0.246469 1.51691C0.0850191 1.8761 0.00103967 2.26528 0 2.65909L0 15.3409C0 16.1659 0.360727 16.9008 0.925068 17.4158Z" fill="#EEEEEE"/>
<path d="M11.322 7.95727L11.3523 8.76961L12.1379 8.97675L11.3749 9.25575L11.4207 10.0674L10.919 9.42766L10.1616 9.72146L10.6147 9.0472L10.1003 8.41805L10.8824 8.64068L11.322 7.95727ZM1.12937 1.94186L1.7395 2.47943L2.42996 2.05177L2.10727 2.79789L2.72727 3.32277L1.91846 3.24668L1.61057 3.99773L1.43373 3.20511L0.622798 3.14452L1.32241 2.73166L1.12937 1.94186ZM1.43302 14.0692L1.83743 14.7738L2.62934 14.5927L2.08402 15.1944L2.50252 15.8912L1.76134 15.5586L1.228 16.1723L1.31466 15.3635L0.567139 15.0464L1.36187 14.8787L1.43302 14.0692ZM7.04543 9C7.04543 9.27757 6.99076 9.55242 6.88454 9.80885C6.77832 10.0653 6.62263 10.2983 6.42636 10.4946C6.23009 10.6908 5.99709 10.8465 5.74065 10.9527C5.48421 11.059 5.20936 11.1136 4.9318 11.1136C4.65423 11.1136 4.37938 11.059 4.12294 10.9527C3.86651 10.8465 3.6335 10.6908 3.43723 10.4946C3.24096 10.2983 3.08527 10.0653 2.97905 9.80885C2.87283 9.55242 2.81816 9.27757 2.81816 9C2.81816 8.43943 3.04085 7.90182 3.43723 7.50543C3.83362 7.10905 4.37123 6.88636 4.9318 6.88636C5.49237 6.88636 6.02998 7.10905 6.42636 7.50543C6.82275 7.90182 7.04543 8.43943 7.04543 9Z" fill="#FCD116"/>
<path d="M5.35098 5.19334L5.24036 7.05897L5.06845 7.03361L5.12834 4.86784L4.93177 4.73961L4.73521 4.86784L4.79509 7.03361L4.62318 7.05897L4.51257 5.19334L4.26386 5.34693L4.49566 7.24709H5.36789L5.59968 5.34693L5.35098 5.19334ZM4.51257 12.8067L4.62318 10.941L4.79509 10.9664L4.7345 13.1322L4.93177 13.2604L5.12834 13.1322L5.06845 10.9664L5.24036 10.941L5.35098 12.8067L5.59968 12.6531L5.36789 10.7522H4.49566L4.26386 12.6531L4.51257 12.8067ZM1.94309 11.3947L3.34161 10.1554L3.44448 10.2935L1.87123 11.7822L1.91914 12.0126L2.14952 12.0612L3.63823 10.4866L3.77702 10.5902L2.53632 11.9887L2.82096 12.0549L4.00107 10.5479L3.69248 10.2393L3.38389 9.9307L1.87686 11.1108L1.94309 11.3947ZM7.92045 6.60454L6.52193 7.84525L6.41907 7.70645L7.99232 6.21774L7.94441 5.98736L7.71402 5.93874L6.22532 7.5127L6.08652 7.40984L7.32723 6.01131L7.04259 5.94509L5.86248 7.45211L6.17107 7.7607L6.47966 8.06929L7.98668 6.88918L7.92045 6.60454ZM1.12511 8.58079L2.99145 8.6914L2.96539 8.86331L0.799614 8.80272L0.671387 8.99999L0.799614 9.19656L2.96539 9.13668L2.99145 9.30859L1.12511 9.4192L1.27871 9.6679L3.17886 9.43611V8.56318L1.27871 8.33209L1.12511 8.58079ZM8.73843 9.4192L6.87209 9.30859L6.89816 9.13668L9.06393 9.19656L9.19216 8.99999L9.06393 8.80272L6.89816 8.86331L6.87209 8.6914L8.73843 8.58079L8.58484 8.33209L6.68398 8.56318V9.43611L8.58484 9.6679L8.73843 9.4192ZM2.53632 6.01131L3.77702 7.40984L3.63823 7.5127L2.14952 5.93874L1.91914 5.98736L1.87123 6.21774L3.44448 7.70645L3.34161 7.84525L1.94309 6.60454L1.87686 6.88918L3.38389 8.06929L3.69248 7.7607L4.00107 7.45211L2.82096 5.94509L2.53632 6.01131ZM7.32723 11.9887L6.08652 10.5902L6.22532 10.4866L7.71402 12.0612L7.94441 12.0126L7.99232 11.7822L6.41907 10.2935L6.52193 10.1554L7.92045 11.3947L7.98668 11.1108L6.47966 9.9307L6.17107 10.2393L5.86248 10.5479L7.04259 12.0549L7.32723 11.9887Z" fill="#FCD116"/>
</g>
</g>
<defs>
<clipPath id="clip0_406_4319">
<rect width="25.3636" height="18" fill="white"/>
</clipPath>
<clipPath id="clip1_406_4319">
<rect width="25.3636" height="25.3636" fill="white" transform="translate(0 -3.68182)"/>
</clipPath>
</defs>
</svg>
